<?xml version="1.0" standalone="no"?>
<!DOCTYPE svg PUBLIC "-//W3C//DTD SVG 20010904//EN"
 "http://www.w3.org/TR/2001/REC-SVG-20010904/DTD/svg10.dtd">
<svg version="1.0" xmlns="http://www.w3.org/2000/svg"
 width="200.000000pt" height="200.000000pt" viewBox="0 0 200.000000 200.000000"
 preserveAspectRatio="xMidYMid meet">

<g transform="translate(0.000000,200.000000) scale(0.100000,-0.100000)"
fill="#000000" stroke="none">
<path d="M468 1940 c-32 -82 -40 -151 -28 -246 17 -133 56 -202 192 -335 l109
-107 -206 -203 c-327 -322 -436 -448 -460 -528 -6 -19 -1 -16 28 16 48 52 115
84 191 90 l62 5 69 -73 c192 -204 227 -235 315 -276 47 -23 119 -49 160 -58
41 -10 80 -23 87 -29 6 -6 18 -48 25 -93 7 -46 15 -83 18 -83 3 0 13 32 22 71
10 39 24 82 32 94 8 13 48 36 93 54 149 60 255 146 371 298 62 81 64 83 106
83 79 0 141 -26 207 -88 l62 -57 -34 64 c-27 52 -90 122 -326 360 -161 163
-301 308 -312 322 l-21 27 73 58 c102 83 174 160 202 213 53 105 66 202 45
327 -10 58 -37 124 -50 124 -3 0 -12 -35 -18 -77 -20 -129 -99 -257 -220 -358
-85 -71 -155 -108 -204 -108 -47 0 -68 19 -84 71 l-10 37 -22 -44 c-12 -25
-22 -46 -22 -47 0 -2 10 -5 23 -8 12 -2 1 -3 -25 -1 -105 8 -269 125 -349 247
-47 74 -69 139 -78 231 l-6 72 -17 -45z m83 -297 c13 -16 12 -17 -3 -4 -10 7
-18 15 -18 17 0 8 8 3 21 -13z m862 -38 c-3 -13 -12 -30 -21 -37 -13 -12 -14
-10 -3 10 6 12 9 22 5 22 -3 0 -1 7 6 15 17 20 18 19 13 -10z m30 0 c-3 -9 -8
-14 -10 -11 -3 3 -2 9 2 15 9 16 15 13 8 -4z m11 -54 c4 -5 -3 -7 -14 -4 -23
6 -26 13 -6 13 8 0 17 -4 20 -9z m-84 -21 c0 -5 -5 -10 -11 -10 -5 0 -7 5 -4
10 3 6 8 10 11 10 2 0 4 -4 4 -10z m50 0 c13 -8 13 -10 -2 -10 -9 0 -20 5 -23
10 -8 13 5 13 25 0z m-156 -41 c-10 -12 -37 -30 -59 -41 l-40 -19 25 21 c59
50 85 68 89 64 2 -2 -4 -13 -15 -25z m-500 -30 c-8 -13 -24 -11 -21 4 1 7 -6
11 -18 9 -11 -2 -17 -1 -13 4 4 4 3 14 -4 21 -6 8 5 5 25 -7 20 -12 34 -26 31
-31z m73 -25 c-3 -3 -12 -4 -19 -1 -8 3 -5 6 6 6 11 1 17 -2 13 -5z m13 -34
c-18 -12 -43 -13 -36 -2 2 4 15 8 28 9 18 2 19 0 8 -7z m50 -5 c-46 -18 -64
-17 -25 0 17 8 37 14 45 14 8 0 -1 -7 -20 -14z m130 11 c0 -2 -7 -7 -16 -10
-8 -3 -12 -2 -9 4 6 10 25 14 25 6z m120 -6 c8 -5 11 -10 5 -10 -5 0 -17 5
-25 10 -8 5 -10 10 -5 10 6 0 17 -5 25 -10z m-36 -16 c3 -8 2 -12 -4 -9 -6 3
-10 10 -10 16 0 14 7 11 14 -7z m-149 -14 c-3 -5 -15 -15 -26 -21 -19 -10 -20
-9 -9 10 6 12 18 21 26 21 8 0 12 -4 9 -10z m-75 -15 c-7 -9 -15 -13 -19 -10
-3 3 1 10 9 15 21 14 24 12 10 -5z m180 5 c0 -5 -2 -10 -4 -10 -3 0 -8 5 -11
10 -3 6 -1 10 4 10 6 0 11 -4 11 -10z m-90 -4 c0 -2 -8 -10 -17 -17 -16 -13
-17 -12 -4 4 13 16 21 21 21 13z m40 -20 c0 -3 -4 -8 -10 -11 -5 -3 -10 -1
-10 4 0 6 5 11 10 11 6 0 10 -2 10 -4z m-216 -132 c8 -21 -12 -17 -24 6 -8 16
-8 18 4 14 8 -3 17 -12 20 -20z m273 -81 c48 -54 141 -152 206 -219 64 -67
117 -129 117 -137 0 -9 -10 -42 -22 -74 -42 -113 -213 -253 -344 -281 -86 -19
-240 46 -331 140 -46 47 -145 205 -141 224 4 14 410 444 419 444 4 0 47 -44
96 -97z m161 -43 c-7 -10 -14 -17 -17 -15 -4 4 18 35 25 35 2 0 -1 -9 -8 -20z
m-588 -64 c0 -2 -7 -9 -15 -16 -13 -11 -14 -10 -9 4 5 14 24 23 24 12z m700
-49 c0 -5 -4 -5 -10 -2 -5 3 -10 14 -10 23 0 15 2 15 10 2 5 -8 10 -19 10 -23z
m45 3 c-3 -5 -12 -10 -18 -10 -7 0 -6 4 3 10 19 12 23 12 15 0z m-948 -207
c-3 -10 -5 -4 -5 12 0 17 2 24 5 18 2 -7 2 -21 0 -30z m1030 2 c-10 -7 -25
-22 -34 -32 -8 -10 -11 -11 -7 -3 12 25 36 50 48 50 6 0 3 -7 -7 -15z m0 -61
c-3 -3 -12 -4 -19 -1 -8 3 -5 6 6 6 11 1 17 -2 13 -5z m-1142 -24 c-3 -5 -12
-10 -18 -10 -7 0 -6 4 3 10 19 12 23 12 15 0z m1123 -14 c-14 -10 -15 -15 -5
-26 10 -12 9 -12 -4 -2 -9 6 -19 8 -24 4 -4 -4 -1 3 6 16 8 12 21 22 29 22 12
-1 12 -3 -2 -14z m-8 -56 c6 -11 7 -20 2 -20 -6 0 -12 9 -15 20 -3 11 -3 20
-1 20 2 0 8 -9 14 -20z m-161 -117 c-6 -7 -17 -13 -23 -12 -7 0 -6 2 2 6 6 2
10 8 8 12 -3 4 1 8 9 8 11 0 12 -4 4 -14z m-135 -99 c9 -24 7 -27 -9 -10 -17
17 -19 26 -6 26 5 0 12 -7 15 -16z m-23 -11 c13 -15 12 -16 -8 -11 -13 4 -23
2 -23 -5 0 -6 -3 -7 -6 -4 -6 5 13 37 21 37 1 0 9 -8 16 -17z m-187 1 c8 -3
13 -13 10 -22 -5 -13 -2 -13 10 2 17 21 20 18 10 -8 -9 -23 -34 -20 -34 5 0
11 -4 17 -10 14 -5 -3 -10 -1 -10 4 0 13 3 13 24 5z m133 -26 c-3 -8 -6 -5 -6
6 -1 11 2 17 5 13 3 -3 4 -12 1 -19z m-74 -8 c-3 -11 -7 -20 -9 -20 -2 0 -4 9
-4 20 0 11 4 20 9 20 5 0 7 -9 4 -20z m-116 -12 c-3 -8 -6 -5 -6 6 -1 11 2 17
5 13 3 -3 4 -12 1 -19z"/>
<path d="M981 898 c-50 -120 -64 -190 -51 -257 11 -56 52 -155 70 -166 18 -11
41 23 74 108 45 116 45 153 -3 291 -23 66 -43 121 -45 123 -2 2 -22 -43 -45
-99z m6 -150 c-3 -8 -6 -5 -6 6 -1 11 2 17 5 13 3 -3 4 -12 1 -19z m-10 -40
c-3 -8 -6 -5 -6 6 -1 11 2 17 5 13 3 -3 4 -12 1 -19z m73 -28 c0 -11 -4 -20
-9 -20 -5 0 -7 9 -4 20 3 11 7 20 9 20 2 0 4 -9 4 -20z"/>
</g>
</svg>
